<svg xmlns="http://www.w3.org/2000/svg" version="1.1" xmlns:xlink="http://www.w3.org/1999/xlink" xmlns:svgjs="http://svgjs.dev/svgjs" width="1440" height="560" preserveAspectRatio="none" viewBox="0 0 1440 560"><g mask="url(&quot;#SvgjsMask1048&quot;)" fill="none"><rect width="1440" height="560" x="0" y="0" fill="rgba(46, 52, 55, 1)"></rect><path d="M0,656.429C119.878,639.638,181.62,506.446,284.901,443.314C391.631,378.073,563.029,394.644,614.661,280.706C666.325,166.697,557.111,44.717,519.648,-74.714C488.787,-173.096,475.888,-276.27,414.064,-358.789C349.29,-445.245,263,-513.451,162.076,-551.981C55.799,-592.554,-58.377,-598.667,-170.925,-582.118C-296.722,-563.621,-452.681,-558.706,-521.091,-451.528C-590.807,-342.304,-486.126,-200.571,-496.88,-71.441C-506.678,46.201,-610.309,150.938,-580.786,265.236C-550.343,383.096,-442.229,463.019,-341.267,531.022C-238.671,600.127,-122.503,673.588,0,656.429" fill="#1e2224"></path><path d="M1440 1082.397C1549.129 1083.058 1672.567 1123.194 1759.804 1057.625 1846.992 992.092 1839.9569999999999 861.595 1872.338 757.442 1900.262 667.625 1951.554 581.4639999999999 1936.718 488.58299999999997 1921.971 396.25800000000004 1855.225 323.87 1792.0720000000001 254.928 1730.4180000000001 187.62099999999998 1662.523 125.673 1576.452 95.28800000000001 1487.433 63.86200000000002 1393.507 74.195 1299.349 80.98599999999999 1180.9189999999999 89.52800000000002 1028.063 46.182000000000016 955.389 140.082 881.55 235.488 982.75 373.23 979.821 493.836 977.364 594.988 914.626 690.466 939.64 788.5070000000001 966.746 894.751 1028.133 998.231 1122.6779999999999 1053.763 1216.147 1108.663 1331.603 1081.74 1440 1082.397" fill="#3e464a"></path></g><defs><mask id="SvgjsMask1048"><rect width="1440" height="560" fill="#ffffff"></rect></mask></defs></svg>